HIERARCHY
ROOT Hips
{
 OFFSET 0.000000 0.000000 0.000000
 CHANNELS 6 Xposition Yposition Zposition Yrotation Xrotation Zrotation
 JOINT Chest
 {
  OFFSET 0.000000 9.585900 0.002600
  CHANNELS 3 Yrotation Xrotation Zrotation
  JOINT Chest2
  {
   OFFSET 0.000000 9.601200 -0.005300
   CHANNELS 3 Yrotation Xrotation Zrotation
   JOINT Chest3
   {
    OFFSET 0.000000 9.561800 0.000000
    CHANNELS 3 Yrotation Xrotation Zrotation
    JOINT Chest4
    {
     OFFSET 0.000000 9.552100 0.000000
     CHANNELS 3 Yrotation Xrotation Zrotation
     JOINT Neck
     {
      OFFSET 0.000000 14.453000 0.000000
      CHANNELS 3 Yrotation Xrotation Zrotation
      JOINT Head
      {
       OFFSET 0.000000 8.936500 -0.011300
       CHANNELS 3 Yrotation Xrotation Zrotation
       End Site
       {
        OFFSET 0.000000 17.073600 -0.006000
       }
      }
     }
     JOINT RightCollar
     {
      OFFSET -2.921100 9.558500 0.000000
      CHANNELS 3 Yrotation Xrotation Zrotation
      JOINT RightShoulder
      {
       OFFSET -13.519700 0.000000 0.000000
       CHANNELS 3 Yrotation Xrotation Zrotation
       JOINT RightElbow
       {
        OFFSET 0.000000 -29.696600 0.000000
        CHANNELS 3 Yrotation Xrotation Zrotation
        JOINT RightWrist
        {
         OFFSET 0.000000 -24.004700 0.000000
         CHANNELS 3 Yrotation Xrotation Zrotation
         End Site
         {
          OFFSET 0.000000 -17.728500 0.000000
         }
        }
       }
      }
     }
     JOINT LeftCollar
     {
      OFFSET 2.921100 9.558500 0.000000
      CHANNELS 3 Yrotation Xrotation Zrotation
      JOINT LeftShoulder
      {
       OFFSET 13.519700 0.000000 0.000000
       CHANNELS 3 Yrotation Xrotation Zrotation
       JOINT LeftElbow
       {
        OFFSET 0.000000 -29.696600 0.000000
        CHANNELS 3 Yrotation Xrotation Zrotation
        JOINT LeftWrist
        {
         OFFSET 0.000000 -24.004700 0.000000
         CHANNELS 3 Yrotation Xrotation Zrotation
         End Site
         {
          OFFSET 0.000000 -17.728500 0.000000
         }
        }
       }
      }
     }
    }
   }
  }
 }
 JOINT RightHip
 {
  OFFSET -7.771700 -0.012900 -0.001300
  CHANNELS 3 Yrotation Xrotation Zrotation
  JOINT RightKnee
  {
   OFFSET 0.000000 -40.869800 0.001200
   CHANNELS 3 Yrotation Xrotation Zrotation
   JOINT RightAnkle
   {
    OFFSET 0.000000 -39.717900 0.002100
    CHANNELS 3 Yrotation Xrotation Zrotation
    JOINT RightToe
    {
     OFFSET 0.000000 -4.965400 11.033500
     CHANNELS 3 Yrotation Xrotation Zrotation
     End Site
     {
      OFFSET 0.000000 -1.423100 5.872300
     }
    }
   }
  }
 }
 JOINT LeftHip
 {
  OFFSET 7.771700 -0.012900 -0.001300
  CHANNELS 3 Yrotation Xrotation Zrotation
  JOINT LeftKnee
  {
   OFFSET 0.000000 -40.869800 0.001200
   CHANNELS 3 Yrotation Xrotation Zrotation
   JOINT LeftAnkle
   {
    OFFSET 0.000000 -39.717900 0.002100
    CHANNELS 3 Yrotation Xrotation Zrotation
    JOINT LeftToe
    {
     OFFSET 0.000000 -4.965400 11.033500
     CHANNELS 3 Yrotation Xrotation Zrotation
     End Site
     {
      OFFSET 0.000000 -1.423100 5.872300
     }
    }
   }
  }
 }
}
MOTION
Frames: 15
Frame Time: 0.008333
0.000000 85.388000 0.000000 0.000000 -5.767877 0.000000 0.000000 11.653817 0.000000 0.000000 -5.885947 0.000000 0.000000 -0.000000 0.000000 0.000000 -0.000000 0.000000 0.000000 12.528835 0.000000 0.000000 0.711642 0.000000 0.000000 -0.000000 0.000000 0.000000 0.000000 -90.000000 0.000000 -2.309062 0.000000 0.000000 2.309062 0.000000 0.000000 -0.000000 0.000000 0.000000 -0.000000 90.000000 0.000000 -2.309062 0.000000 0.000000 2.309062 0.000000 0.000000 8.520406 0.000000 0.000000 1.905762 0.000000 -0.000000 -4.658285 0.000000 0.000000 -0.000000 0.000000 0.000000 8.520406 0.000000 0.000000 1.905762 0.000000 -0.000000 -4.658285 0.000000 0.000000 -0.000000 0.000000
-123.129510 57.636135 102.974044 179.579046 -33.957791 -0.903642 1.967697 19.279564 2.224013 0.182045 2.314436 0.212490 0.307374 3.815171 0.357342 1.602737 16.667935 1.777593 0.759173 11.197663 1.134845 0.907373 -15.003221 1.864113 2.178436 -3.471020 -1.226762 8.388814 -12.067863 -17.584385 144.830937 -75.204319 -103.548689 19.326540 -18.846304 -49.411694 -7.322819 -4.790191 -2.764112 -1.032121 -8.506822 3.551938 -123.876099 -74.991351 90.039428 -9.029524 -16.536405 29.294441 10.434882 -40.537026 -9.891176 -7.737073 68.158923 -6.434431 6.178056 20.921815 7.990149 -0.226589 -14.295947 1.134911 -10.039218 -39.093892 1.125821 26.052505 64.055712 22.327997 -16.186217 6.408554 -3.560382 0.156478 0.016633 0.067120
-123.132655 57.636758 102.974567 179.576737 -33.961045 -0.904668 1.953418 19.277017 2.212704 0.189637 2.318068 0.216612 0.299820 3.817101 0.355324 1.604247 16.669485 1.778297 0.758118 11.210165 1.134246 0.933765 -14.944481 1.853795 2.164070 -3.472571 -1.229005 8.372627 -12.061848 -17.561843 144.789986 -75.202870 -103.529577 19.327582 -18.873993 -49.383765 -7.334692 -4.790321 -2.765954 -1.041314 -8.513087 3.552298 -123.912848 -75.068621 90.018371 -9.071053 -16.506337 29.352358 10.428666 -40.530366 -9.896396 -7.785939 68.152265 -6.466482 6.179285 20.918711 7.967209 -0.213112 -14.287895 1.138430 -10.033503 -39.090248 1.119378 26.050006 64.053717 22.334706 -16.188411 6.407916 -3.555369 0.156888 0.016389 0.059189
-123.135602 57.638125 102.974072 179.573656 -33.969754 -0.908703 1.938472 19.284081 2.204404 0.178069 2.319368 0.214230 0.325112 3.818040 0.362736 1.592503 16.671515 1.775319 0.736089 11.243995 1.137200 0.977572 -14.968396 1.840305 2.151987 -3.473534 -1.231742 8.383380 -12.060874 -17.550828 144.773295 -75.202609 -103.519207 19.327797 -18.855451 -49.407849 -7.366688 -4.790812 -2.764694 -1.031220 -8.522922 3.553081 -123.911886 -75.117851 89.986358 -9.085676 -16.486823 29.398884 10.419635 -40.518314 -9.894212 -7.809952 68.148100 -6.480785 6.180443 20.911388 7.953966 -0.203355 -14.279503 1.139403 -10.024405 -39.079344 1.112417 26.047628 64.050407 22.346059 -16.184441 6.405416 -3.556249 0.142386 0.017068 0.059719
-123.138538 57.639758 102.973220 179.566345 -33.978288 -0.911409 1.927308 19.292563 2.200853 0.174950 2.322891 0.214974 0.324449 3.817475 0.361710 1.581909 16.675798 1.772739 0.753281 11.257873 1.136933 0.995880 -14.948479 1.831890 2.137587 -3.475000 -1.234636 8.385577 -12.060308 -17.534305 144.762406 -75.199562 -103.509823 19.319644 -18.832427 -49.449347 -7.350951 -4.797421 -2.770155 -1.034954 -8.527238 3.555439 -123.926313 -75.150624 89.976674 -9.056680 -16.499049 29.394337 10.407811 -40.505393 -9.891390 -7.821230 68.142205 -6.483024 6.185797 20.902272 7.940926 -0.197640 -14.269314 1.139321 -10.016822 -39.068419 1.112852 26.044440 64.049196 22.349823 -16.182957 6.404059 -3.550977 0.141424 0.017057 0.053463
-123.141892 57.641100 102.972734 179.565118 -33.981077 -0.914991 1.900724 19.300229 2.191273 0.187888 2.322153 0.217401 0.306565 3.823378 0.359657 1.587483 16.676754 1.772628 0.768786 11.268483 1.134457 1.020038 -14.880830 1.830479 2.155351 -3.483038 -1.241366 8.354601 -12.057589 -17.519636 144.745864 -75.211326 -103.508927 19.318970 -18.844801 -49.430816 -7.380308 -4.815420 -2.779243 -1.035794 -8.533065 3.563697 -123.857896 -75.179494 89.920973 -9.085037 -16.483730 29.426216 10.394499 -40.499202 -9.889624 -7.833904 68.136912 -6.493072 6.193974 20.898622 7.932550 -0.205160 -14.264650 1.144084 -10.013438 -39.062587 1.110672 26.046854 64.044794 22.359428 -16.180501 6.400583 -3.545791 0.135236 0.019971 0.048731
-123.145638 57.642448 102.972140 179.563966 -33.982167 -0.915854 1.890573 19.301737 2.185759 0.195919 2.322639 0.220066 0.296695 3.825467 0.357012 1.580985 16.679897 1.772759 0.780299 11.284160 1.134448 1.039630 -14.852548 1.830357 2.165292 -3.487991 -1.244465 8.336782 -12.056708 -17.507362 144.723431 -75.217994 -103.491387 19.320216 -18.856705 -49.416773 -7.379874 -4.826010 -2.781857 -1.070151 -8.540981 3.566509 -123.793097 -75.205475 89.867112 -9.082149 -16.482101 29.439768 10.384135 -40.492489 -9.892045 -7.835258 68.131478 -6.491050 6.189578 20.886616 7.924556 -0.201345 -14.251674 1.143443 -10.009382 -39.059068 1.101773 26.060503 64.036724 22.382403 -16.178061 6.399257 -3.548052 0.138540 0.021291 0.049587
-123.149112 57.644281 102.970774 179.558147 -33.987489 -0.915642 1.887992 19.307339 2.184057 0.192655 2.322645 0.218315 0.298832 3.827463 0.357978 1.558730 16.688695 1.765753 0.808261 11.285182 1.135765 1.055116 -14.809089 1.838600 2.175990 -3.499906 -1.242450 8.338056 -12.054305 -17.498675 144.700158 -75.221034 -103.472791 19.314700 -18.844213 -49.418343 -7.354821 -4.837582 -2.780561 -1.099983 -8.552038 3.570766 -123.758608 -75.229763 89.826666 -9.073395 -16.478912 29.445462 10.377507 -40.482895 -9.888564 -7.844929 68.126945 -6.499325 6.184987 20.877267 7.913140 -0.206438 -14.241454 1.150559 -10.000355 -39.050863 1.090066 26.072941 64.027269 22.407187 -16.172410 6.401235 -3.551111 0.132078 0.019638 0.049625
-123.152330 57.645700 102.969924 179.556668 -33.988787 -0.920212 1.888267 19.308736 2.188258 0.183802 2.324188 0.215838 0.307397 3.826561 0.359747 1.557251 16.689501 1.764595 0.806440 11.314160 1.144245 1.075473 -14.780162 1.845195 2.151879 -3.510265 -1.243836 8.359532 -12.046397 -17.490616 144.667888 -75.225723 -103.453333 19.316559 -18.827448 -49.425945 -7.372024 -4.844789 -2.776804 -1.094278 -8.554774 3.572382 -123.767724 -75.243365 89.811909 -9.070280 -16.469805 29.455617 10.366204 -40.478103 -9.884885 -7.856853 68.122244 -6.506941 6.179432 20.871511 7.901779 -0.195631 -14.233959 1.151532 -10.003195 -39.047774 1.092306 26.071847 64.022771 22.412711 -16.173715 6.404547 -3.558779 0.132929 0.016809 0.052973
-123.160509 57.647326 102.968480 179.553037 -33.994430 -0.895816 1.871223 19.314139 2.155929 0.177520 2.326070 0.211799 0.312765 3.828625 0.364032 1.553980 16.694375 1.764884 0.819848 11.340109 1.151109 1.094497 -14.749477 1.853265 2.158601 -3.520859 -1.249211 8.348062 -12.043536 -17.473207 144.658196 -75.218427 -103.429577 19.327629 -18.809339 -49.439708 -7.378149 -4.854715 -2.774110 -1.085710 -8.561327 3.574044 -123.791547 -75.247582 89.813477 -9.061703 -16.471524 29.452028 10.375655 -40.464775 -9.925844 -7.828985 68.120782 -6.475285 6.166149 20.870301 7.890395 -0.180154 -14.231358 1.150330 -9.992082 -39.043107 1.050199 26.105957 64.010690 22.448248 -16.126996 6.412514 -3.534441 0.093328 0.011549 0.029680
-123.164980 57.648741 102.967369 179.557999 -33.999072 -0.901409 1.861342 19.318431 2.152382 0.181904 2.326695 0.214216 0.305595 3.832644 0.358427 1.554504 16.695583 1.767166 0.833448 11.363044 1.158954 1.101541 -14.744937 1.856119 2.164404 -3.527556 -1.249457 8.312128 -12.048701 -17.455281 144.630698 -75.210187 -103.388788 19.333280 -18.810846 -49.434131 -7.387067 -4.864403 -2.769323 -1.092089 -8.580588 3.582003 -123.736939 -75.261489 89.764468 -9.060361 -16.470343 29.454003 10.364945 -40.459598 -9.928510 -7.813020 68.121066 -6.458089 6.162626 20.876623 7.890117 -0.180782 -14.237441 1.149010 -10.000163 -39.037514 1.049734 26.102681 64.008682 22.448847 -16.129458 6.412028 -3.535145 0.103154 0.012183 0.027922
-123.171039 57.649725 102.966743 179.570255 -34.000945 -0.905466 1.848576 19.318670 2.145486 0.182470 2.328587 0.215955 0.307000 3.833166 0.358130 1.546145 16.703637 1.763770 0.849433 11.384090 1.168105 1.124094 -14.681199 1.875078 2.169931 -3.536774 -1.248912 8.310492 -12.049177 -17.451019 144.590308 -75.203556 -103.362213 19.339656 -18.807301 -49.435187 -7.397881 -4.887341 -2.767861 -1.085382 -8.590557 3.595799 -123.711164 -75.276187 89.727889 -9.066669 -16.466616 29.452082 10.355327 -40.456580 -9.941086 -7.810907 68.122616 -6.450432 6.160170 20.885091 7.883417 -0.175215 -14.245661 1.150180 -10.028399 -39.036354 1.038971 26.112576 63.998052 22.461796 -16.120747 6.419927 -3.540928 0.098355 0.008209 0.025703
-123.177429 57.650283 102.966687 179.589060 -33.999100 -0.915620 1.836248 19.313745 2.144391 0.182055 2.329743 0.215859 0.304759 3.835085 0.359629 1.540571 16.708943 1.753633 0.860856 11.393786 1.180588 1.157619 -14.594348 1.897693 2.164333 -3.544743 -1.240765 8.301087 -12.051530 -17.443821 144.564413 -75.184857 -103.339997 19.337476 -18.803086 -49.433773 -7.396886 -4.893147 -2.757997 -1.094694 -8.620879 3.609607 -123.706052 -75.278689 89.709133 -9.100077 -16.478724 29.440493 10.338472 -40.457702 -9.951087 -7.807611 68.124863 -6.442677 6.158616 20.892764 7.876854 -0.171787 -14.254269 1.152597 -10.068502 -39.039341 1.031040 26.026787 63.997983 22.397617 -16.078322 6.434827 -3.564375 0.116687 0.002398 0.023387
-123.186089 57.651430 102.965722 179.598908 -34.003465 -0.911748 1.826685 19.314717 2.131114 0.181824 2.330659 0.215521 0.304129 3.836703 0.359139 1.540679 16.710985 1.755906 0.867028 11.408458 1.186219 1.171655 -14.567215 1.904809 2.153614 -3.546539 -1.236551 8.297644 -12.052738 -17.444530 144.553272 -75.170619 -103.330566 19.341605 -18.796463 -49.438878 -7.410875 -4.904348 -2.759579 -1.109518 -8.664889 3.648126 -123.694325 -75.295032 89.694476 -9.121709 -16.478736 29.443583 10.317174 -40.454062 -9.968707 -7.754295 68.128655 -6.395202 6.156032 20.903312 7.871519 -0.174224 -14.265213 1.152635 -10.097860 -39.036070 1.008693 26.037064 63.989605 22.407179 -16.052678 6.440643 -3.571163 0.093839 -0.000482 0.023344
-123.195359 57.653017 102.964275 179.603928 -34.010378 -0.906038 1.831828 19.314148 2.122941 0.176190 2.335074 0.216674 0.303427 3.838172 0.359027 1.536788 16.713107 1.756894 0.882892 11.438781 1.194222 1.215551 -14.481382 1.922617 2.141325 -3.555992 -1.242165 8.290545 -12.049358 -17.419957 144.494034 -75.138630 -103.273628 19.328421 -18.793598 -49.434335 -7.420061 -4.924707 -2.778085 -1.107675 -8.653343 3.675096 -123.815654 -75.259409 89.795823 -9.104828 -16.457484 29.450172 10.307333 -40.446681 -9.984524 -7.741013 68.133348 -6.383328 6.155349 20.908733 7.864853 -0.167638 -14.273309 1.153270 -10.125163 -39.029174 0.985617 26.094973 63.976182 22.454079 -16.040247 6.442938 -3.556563 0.084167 -0.001618 0.010635
